<svg xmlns="http://www.w3.org/2000/svg" viewBox="0 0 120 140" role="img" aria-label="WPA">
  <rect width="120" height="140" fill="#fff"/>
  <path d="M 47.1 129.8 L 47.0 129.7 L 47.0 129.6 L 47.0 129.5 L 47.0 129.4 L 46.9 129.3 L 46.9 129.2 L 46.8 129.1 L 46.8 129.0 L 46.7 128.9 L 46.7 128.8 L 46.6 128.7 L 46.5 128.6 L 46.4 128.5 L 46.3 128.3 L 46.2 128.2 L 46.1 128.1 L 46.0 128.0 L 45.8 127.9 L 45.7 127.8 L 45.5 127.7 L 45.3 127.5 L 45.1 127.4 L 44.8 127.3 L 44.6 127.1 L 44.3 127.0 L 44.0 126.8 L 43.7 126.7 L 43.3 126.5 L 42.9 126.3 L 42.5 126.2 L 42.1 126.0 L 41.7 125.8 L 41.2 125.6 L 40.8 125.3 L 40.3 125.1 L 39.8 124.9 L 39.3 124.6 L 38.8 124.4 L 38.3 124.1 L 37.8 123.8 L 37.3 123.5 L 36.8 123.2 L 36.3 122.9 L 35.9 122.6 L 35.4 122.3 L 35.0 122.0 L 34.7 121.7 L 34.4 121.4 L 34.1 121.1 L 33.8 120.8 L 33.6 120.5 L 33.5 120.3 L 33.4 120.0 L 33.3 119.7 L 33.3 119.5 L 33.4 119.3 L 33.5 119.1 L 33.7 118.9 L 33.9 118.7 L 34.1 118.6 L 34.5 118.5 L 34.8 118.4 L 35.2 118.3 L 35.6 118.2 L 36.1 118.2 L 36.6 118.2 L 37.1 118.2 L 37.6 118.2 L 38.2 118.2 L 38.7 118.2 L 39.3 118.3 L 39.9 118.4 L 40.4 118.4 L 41.0 118.5 L 41.6 118.6 L 42.1 118.7 L 42.6 118.8 L 43.1 118.9 L 43.6 119.0 L 44.1 119.1 L 44.6 119.2 L 45.0 119.2 L 45.4 119.3 L 45.8 119.4 L 46.1 119.4 L 46.4 119.5 L 46.7 119.5 L 47.0 119.5 L 47.2 119.5 L 47.5 119.5 L 47.7 119.5 L 47.8 119.5 L 48.0 119.5 L 48.1 119.4 L 48.2 119.3 L 48.3 119.2 L 48.3 119.1 L 48.3 119.0 L 48.3 118.8 L 48.3 118.6 L 48.2 118.4 L 48.2 118.2 L 48.1 118.0 L 47.9 117.7 L 47.8 117.4 L 47.6 117.0 L 47.4 116.7 L 47.1 116.3 L 46.9 115.8 L 46.6 115.4 L 46.3 114.9 L 46.0 114.3 L 45.6 113.7 L 45.2 113.1 L 44.9 112.5 L 44.4 111.8 L 44.0 111.1 L 43.6 110.4 L 43.2 109.6 L 42.7 108.8 L 42.3 108.0 L 41.9 107.2 L 41.4 106.3 L 41.0 105.5 L 40.6 104.7 L 40.3 103.8 L 39.9 103.0 L 39.6 102.2 L 39.4 101.4 L 39.1 100.6 L 38.9 99.9 L 38.8 99.2 L 38.7 98.6 L 38.7 98.0 L 38.7 97.5 L 38.7 97.1 L 38.8 96.7 L 39.0 96.4 L 39.2 96.2 L 39.5 96.0 L 39.8 96.0 L 40.2 96.0 L 40.6 96.0 L 41.0 96.2 L 41.5 96.4 L 42.0 96.7 L 42.6 97.1 L 43.1 97.5 L 43.7 98.0 L 44.3 98.5 L 44.9 99.1 L 45.5 99.7 L 46.2 100.4 L 46.8 101.0 L 47.4 101.7 L 48.0 102.4 L 48.5 103.1 L 49.1 103.8 L 49.6 104.5 L 50.1 105.1 L 50.6 105.8 L 51.1 106.4 L 51.5 106.9 L 51.9 107.5 L 52.3 108.0 L 52.7 108.4 L 53.0 108.8 L 53.3 109.1 L 53.5 109.4 L 53.8 109.6 L 54.0 109.7 L 54.2 109.8 L 54.3 109.8 L 54.5 109.8 L 54.6 109.6 L 54.7 109.4 L 54.8 109.1 L 54.9 108.8 L 54.9 108.3 L 55.0 107.8 L 55.0 107.2 L 55.0 106.6 L 55.1 105.9 L 55.1 105.1 L 55.1 104.2 L 55.1 103.3 L 55.1 102.3 L 55.2 101.3 L 55.2 100.2 L 55.2 99.1 L 55.3 97.9 L 55.4 96.8 L 55.5 95.6 L 55.6 94.4 L 55.7 93.2 L 55.9 92.0 L 56.0 90.8 L 56.2 89.7 L 56.5 88.6 L 56.7 87.5 L 57.0 86.6 L 57.2 85.7 L 57.5 84.8 L 57.9 84.1 L 58.2 83.5 L 58.5 83.0 L 58.9 82.5 L 59.3 82.2 L 59.6 82.1 L 60.0 82.0 L 60.4 82.1 L 60.7 82.2 L 61.1 82.5 L 61.5 83.0 L 61.8 83.5 L 62.1 84.1 L 62.5 84.8 L 62.8 85.7 L 63.0 86.6 L 63.3 87.5 L 63.5 88.6 L 63.8 89.7 L 64.0 90.8 L 64.1 92.0 L 64.3 93.2 L 64.4 94.4 L 64.5 95.6 L 64.6 96.8 L 64.7 97.9 L 64.8 99.1 L 64.8 100.2 L 64.8 101.3 L 64.9 102.3 L 64.9 103.3 L 64.9 104.2 L 64.9 105.1 L 64.9 105.9 L 65.0 106.6 L 65.0 107.2 L 65.0 107.8 L 65.1 108.3 L 65.1 108.8 L 65.2 109.1 L 65.3 109.4 L 65.4 109.6 L 65.5 109.8 L 65.7 109.8 L 65.8 109.8 L 66.0 109.7 L 66.2 109.6 L 66.5 109.4 L 66.7 109.1 L 67.0 108.8 L 67.3 108.4 L 67.7 108.0 L 68.1 107.5 L 68.5 106.9 L 68.9 106.4 L 69.4 105.8 L 69.9 105.1 L 70.4 104.5 L 70.9 103.8 L 71.5 103.1 L 72.0 102.4 L 72.6 101.7 L 73.2 101.0 L 73.8 100.4 L 74.5 99.7 L 75.1 99.1 L 75.7 98.5 L 76.3 98.0 L 76.9 97.5 L 77.4 97.1 L 78.0 96.7 L 78.5 96.4 L 79.0 96.2 L 79.4 96.0 L 79.8 96.0 L 80.2 96.0 L 80.5 96.0 L 80.8 96.2 L 81.0 96.4 L 81.2 96.7 L 81.3 97.1 L 81.3 97.5 L 81.3 98.0 L 81.3 98.6 L 81.2 99.2 L 81.1 99.9 L 80.9 100.6 L 80.6 101.4 L 80.4 102.2 L 80.1 103.0 L 79.7 103.8 L 79.4 104.7 L 79.0 105.5 L 78.6 106.3 L 78.1 107.2 L 77.7 108.0 L 77.3 108.8 L 76.8 109.6 L 76.4 110.4 L 76.0 111.1 L 75.6 111.8 L 75.1 112.5 L 74.8 113.1 L 74.4 113.7 L 74.0 114.3 L 73.7 114.9 L 73.4 115.4 L 73.1 115.8 L 72.9 116.3 L 72.6 116.7 L 72.4 117.0 L 72.2 117.4 L 72.1 117.7 L 71.9 118.0 L 71.8 118.2 L 71.8 118.4 L 71.7 118.6 L 71.7 118.8 L 71.7 119.0 L 71.7 119.1 L 71.7 119.2 L 71.8 119.3 L 71.9 119.4 L 72.0 119.5 L 72.2 119.5 L 72.3 119.5 L 72.5 119.5 L 72.8 119.5 L 73.0 119.5 L 73.3 119.5 L 73.6 119.5 L 73.9 119.4 L 74.2 119.4 L 74.6 119.3 L 75.0 119.2 L 75.4 119.2 L 75.9 119.1 L 76.4 119.0 L 76.9 118.9 L 77.4 118.8 L 77.9 118.7 L 78.4 118.6 L 79.0 118.5 L 79.6 118.4 L 80.1 118.4 L 80.7 118.3 L 81.3 118.2 L 81.8 118.2 L 82.4 118.2 L 82.9 118.2 L 83.4 118.2 L 83.9 118.2 L 84.4 118.2 L 84.8 118.3 L 85.2 118.4 L 85.5 118.5 L 85.9 118.6 L 86.1 118.7 L 86.3 118.9 L 86.5 119.1 L 86.6 119.3 L 86.7 119.5 L 86.7 119.7 L 86.6 120.0 L 86.5 120.3 L 86.4 120.5 L 86.2 120.8 L 85.9 121.1 L 85.6 121.4 L 85.3 121.7 L 85.0 122.0 L 84.6 122.3 L 84.1 122.6 L 83.7 122.9 L 83.2 123.2 L 82.7 123.5 L 82.2 123.8 L 81.7 124.1 L 81.2 124.4 L 80.7 124.6 L 80.2 124.9 L 79.7 125.1 L 79.2 125.3 L 78.8 125.6 L 78.3 125.8 L 77.9 126.0 L 77.5 126.2 L 77.1 126.3 L 76.7 126.5 L 76.3 126.7 L 76.0 126.8 L 75.7 127.0 L 75.4 127.1 L 75.2 127.3 L 74.9 127.4 L 74.7 127.5 L 74.5 127.7 L 74.3 127.8 L 74.2 127.9 L 74.0 128.0 L 73.9 128.1 L 73.8 128.2 L 73.7 128.3 L 73.6 128.5 L 73.5 128.6 L 73.4 128.7 L 73.3 128.8 L 73.3 128.9 L 73.2 129.0 L 73.2 129.1 L 73.1 129.2 L 73.1 129.3 L 73.0 129.4 L 73.0 129.5 L 73.0 129.6 L 73.0 129.7 L 72.9 129.8 Z" fill="#fff" stroke="#20291f" stroke-width="2.3" stroke-linejoin="round"/>
  <path d="M 60.0 128.0 L 60.0 144.0" stroke="#20291f" stroke-width="2.3" stroke-linecap="round"/>
  <path d="M 60.0 128.0 L 39.2 121.3" stroke="#20291f" stroke-width="1.1" stroke-linecap="round"/>
  <path d="M 60.0 128.0 L 43.9 103.1" stroke="#20291f" stroke-width="1.1" stroke-linecap="round"/>
  <path d="M 60.0 128.0 L 60.0 92.1" stroke="#20291f" stroke-width="1.1" stroke-linecap="round"/>
  <path d="M 60.0 128.0 L 76.1 103.1" stroke="#20291f" stroke-width="1.1" stroke-linecap="round"/>
  <path d="M 60.0 128.0 L 80.8 121.3" stroke="#20291f" stroke-width="1.1" stroke-linecap="round"/>
</svg>
